<svg xmlns="http://www.w3.org/2000/svg" viewBox="0 0 64 64" role="img" aria-label="Хор Голоса">
  <!--
    Знак хора: буква «а» из названия с лавровой ветвью вместо ударения.
    Значок вкладки рисуется без веб-шрифтов, поэтому буква берётся
    из Georgia — она есть почти везде и близка по рисунку к Playfair.
  -->
  <rect width="64" height="64" fill="#1b3a6b"/>
  <text x="28" y="47" text-anchor="middle"
        font-family="Georgia, 'Times New Roman', 'PT Serif', serif"
        font-size="40" fill="#f7f4ec">а</text>
  <g transform="translate(29 35) scale(0.52)">
    <g fill="#f7f4ec"><path d="M-32.77 -22.94A40 40 0 0 1 34.64 -20" fill="none" stroke="#f7f4ec" stroke-width="1.4" stroke-linecap="round"/><path d="M0 0C1.73 -3.46 6.14 -2.86 9.6 -1.15C6.14 1.06 1.92 2.16 0 0Z" transform="translate(-32.77 -22.94) rotate(-101)"/><path d="M0 0C1.73 -3.46 6.14 -2.86 9.6 -1.15C6.14 1.06 1.92 2.16 0 0Z" transform="translate(-32.77 -22.94) rotate(-9)"/><path d="M0 0C1.64 -3.28 5.84 -2.72 9.12 -1.09C5.84 1.01 1.82 2.05 0 0Z" transform="translate(-26.04 -30.36) rotate(-86.63)"/><path d="M0 0C1.64 -3.28 5.84 -2.72 9.12 -1.09C5.84 1.01 1.82 2.05 0 0Z" transform="translate(-26.04 -30.36) rotate(5.38)"/><path d="M0 0C1.56 -3.11 5.53 -2.58 8.64 -1.04C5.53 0.96 1.73 1.94 0 0Z" transform="translate(-17.69 -35.87) rotate(-72.25)"/><path d="M0 0C1.56 -3.11 5.53 -2.58 8.64 -1.04C5.53 0.96 1.73 1.94 0 0Z" transform="translate(-17.69 -35.87) rotate(19.75)"/><path d="M0 0C1.47 -2.94 5.22 -2.43 8.16 -0.98C5.22 0.9 1.63 1.84 0 0Z" transform="translate(-8.23 -39.14) rotate(-57.88)"/><path d="M0 0C1.47 -2.94 5.22 -2.43 8.16 -0.98C5.22 0.9 1.63 1.84 0 0Z" transform="translate(-8.23 -39.14) rotate(34.13)"/><path d="M0 0C1.38 -2.76 4.92 -2.29 7.68 -0.92C4.92 0.85 1.54 1.73 0 0Z" transform="translate(1.74 -39.96) rotate(-43.5)"/><path d="M0 0C1.38 -2.76 4.92 -2.29 7.68 -0.92C4.92 0.85 1.54 1.73 0 0Z" transform="translate(1.74 -39.96) rotate(48.5)"/><path d="M0 0C1.3 -2.59 4.61 -2.15 7.2 -0.86C4.61 0.8 1.44 1.62 0 0Z" transform="translate(11.61 -38.28) rotate(-29.13)"/><path d="M0 0C1.3 -2.59 4.61 -2.15 7.2 -0.86C4.61 0.8 1.44 1.62 0 0Z" transform="translate(11.61 -38.28) rotate(62.88)"/><path d="M0 0C1.21 -2.42 4.3 -2 6.72 -0.81C4.3 0.74 1.34 1.51 0 0Z" transform="translate(20.75 -34.2) rotate(-14.75)"/><path d="M0 0C1.21 -2.42 4.3 -2 6.72 -0.81C4.3 0.74 1.34 1.51 0 0Z" transform="translate(20.75 -34.2) rotate(77.25)"/><path d="M0 0C1.12 -2.25 3.99 -1.86 6.24 -0.75C3.99 0.69 1.25 1.4 0 0Z" transform="translate(28.59 -27.97) rotate(-0.38)"/><path d="M0 0C1.12 -2.25 3.99 -1.86 6.24 -0.75C3.99 0.69 1.25 1.4 0 0Z" transform="translate(28.59 -27.97) rotate(91.63)"/><path d="M0 0C1.04 -2.07 3.69 -1.72 5.76 -0.69C3.69 0.64 1.15 1.3 0 0Z" transform="translate(34.64 -20) rotate(14)"/><path d="M0 0C1.04 -2.07 3.69 -1.72 5.76 -0.69C3.69 0.64 1.15 1.3 0 0Z" transform="translate(34.64 -20) rotate(106)"/></g>
  </g>
</svg>
